<svg width="155" height="36" viewBox="0 0 155 36" fill="none" xmlns="http://www.w3.org/2000/svg">
<path d="M12.9648 26.9336C12.9648 26.5039 13.069 26.1719 13.2773 25.9375C13.4987 25.6901 13.7461 25.5664 14.0195 25.5664C14.306 25.5664 14.5534 25.6706 14.7617 25.8789C14.9831 26.0742 15.0807 26.3802 15.0547 26.7969C14.9245 29.4271 14.2148 31.543 12.9258 33.1445C11.6888 34.681 10.1393 35.4492 8.27734 35.4492C4.76172 35.4492 2.48958 32.819 1.46094 27.5586C1.07031 25.6185 0.875 23.3333 0.875 20.7031C0.875 18.0599 1.03776 15.7096 1.36328 13.6523C1.6888 11.582 2.18359 9.78516 2.84766 8.26172C4.26693 5.00651 6.28516 3.37891 8.90234 3.37891C10.9336 3.37891 12.4375 4.17969 13.4141 5.78125C14.4427 7.48698 14.957 10.2734 14.957 14.1406C14.957 14.5703 14.8594 14.8958 14.6641 15.1172C14.4688 15.3255 14.2344 15.4297 13.9609 15.4297C13.362 15.4297 13.0625 15.0521 13.0625 14.2969C13.0625 9.47917 12.2943 6.60807 10.7578 5.68359C10.2109 5.35807 9.57292 5.19531 8.84375 5.19531C8.11458 5.19531 7.45703 5.40365 6.87109 5.82031C6.29818 6.22396 5.78385 6.79036 5.32812 7.51953C4.88542 8.23568 4.5013 9.08854 4.17578 10.0781C3.85026 11.0547 3.58333 12.1094 3.375 13.2422C2.95833 15.5339 2.75 17.7995 2.75 20.0391C2.75 22.2656 2.82161 24.056 2.96484 25.4102C3.10807 26.7513 3.3099 27.9036 3.57031 28.8672C3.83073 29.8177 4.13672 30.599 4.48828 31.2109C4.85286 31.8099 5.25 32.2852 5.67969 32.6367C6.40885 33.2487 7.33984 33.5547 8.47266 33.5547C9.73568 33.5547 10.7708 33.0404 11.5781 32.0117C12.5286 30.8268 12.9909 29.1341 12.9648 26.9336ZM26.7344 30.9961C26.7214 30.2799 26.7214 29.401 26.7344 28.3594C26.1745 28.1641 25.4648 28.0664 24.6055 28.0664C23.4466 28.0664 22.4961 28.3464 21.7539 28.9062C21.3893 29.1927 21.0964 29.5443 20.875 29.9609C20.6536 30.3646 20.543 30.8919 20.543 31.543C20.543 32.181 20.7643 32.7148 21.207 33.1445C21.6497 33.5742 22.3008 33.7891 23.1602 33.7891C24.0195 33.7891 24.9766 33.2031 26.0312 32.0312C26.3307 31.7057 26.5651 31.3607 26.7344 30.9961ZM27.9844 35.4102C27.2031 35.4102 26.8125 34.8177 26.8125 33.6328C26.8125 33.5547 26.806 33.3333 26.793 32.9688C26.6758 33.112 26.5456 33.2682 26.4023 33.4375C25.2305 34.7656 23.9544 35.4297 22.5742 35.4297C21.4674 35.4297 20.5495 35.0781 19.8203 34.375C19.0651 33.6458 18.6875 32.7148 18.6875 31.582C18.6875 30.0065 19.2995 28.737 20.5234 27.7734C21.0703 27.3438 21.6823 27.0182 22.3594 26.7969C23.0495 26.5755 23.8177 26.4648 24.6641 26.4648C25.3672 26.4648 26.0573 26.582 26.7344 26.8164V24.7461C26.7344 23.6003 26.4935 22.7409 26.0117 22.168C25.543 21.5951 25.0547 21.3086 24.5469 21.3086C24.0391 21.3086 23.6224 21.3737 23.2969 21.5039C22.9844 21.6341 22.7044 21.8229 22.457 22.0703C21.9102 22.6042 21.5977 23.2682 21.5195 24.0625C21.5586 24.4792 21.474 24.7721 21.2656 24.9414C21.0573 25.0977 20.8294 25.1758 20.582 25.1758C19.8789 25.1758 19.5404 24.707 19.5664 23.7695C19.5924 22.793 20.0872 21.8945 21.0508 21.0742C22.0404 20.2279 23.1471 19.8047 24.3711 19.8047C26.194 19.8047 27.4245 20.7096 28.0625 22.5195C28.2839 23.1706 28.3945 23.8867 28.3945 24.668V26.6797L28.375 29.9609V31.6992C28.375 32.4805 28.4661 33.112 28.6484 33.5938C28.8438 34.0755 28.9414 34.4206 28.9414 34.6289C28.9414 34.8242 28.8438 35 28.6484 35.1562C28.4531 35.3255 28.2318 35.4102 27.9844 35.4102ZM41.2461 20.918C41.2461 21.6211 40.8945 22.0247 40.1914 22.1289C39.332 22.2982 38.362 23.0339 37.2812 24.3359C36.1224 25.7422 35.4714 27.1289 35.3281 28.4961C35.276 29.0951 35.25 29.6419 35.25 30.1367C35.25 31.3216 35.3021 32.5651 35.4062 33.8672C35.4323 34.2969 35.3216 34.6224 35.0742 34.8438C34.8398 35.0651 34.5794 35.1758 34.293 35.1758C34.0195 35.1758 33.7786 35.0781 33.5703 34.8828C33.362 34.6745 33.2773 34.3685 33.3164 33.9648C33.3555 33.5482 33.388 33.0729 33.4141 32.5391C33.4401 31.9922 33.4661 31.4193 33.4922 30.8203C33.5182 29.8047 33.5312 28.6719 33.5312 27.4219C33.5312 25.3125 33.5052 23.75 33.4531 22.7344C33.401 21.7057 33.4076 21.1133 33.4727 20.957C33.5378 20.8008 33.6224 20.6771 33.7266 20.5859C33.9479 20.3776 34.1888 20.2734 34.4492 20.2734C34.7227 20.2734 34.9635 20.3711 35.1719 20.5664C35.3932 20.7617 35.4909 21.0156 35.4648 21.3281C35.4518 21.6276 35.4258 21.9271 35.3867 22.2266C35.3607 22.513 35.3281 22.8711 35.2891 23.3008C35.2109 23.9909 35.1393 24.7266 35.0742 25.5078C35.6081 24.1667 36.3698 22.9297 37.3594 21.7969C38.4661 20.5599 39.4297 19.9414 40.25 19.9414C40.6016 19.9414 40.8555 20.0391 41.0117 20.2344C41.168 20.4297 41.2461 20.6576 41.2461 20.918ZM51.168 26.5625C51.194 24.2969 50.7188 22.7474 49.7422 21.9141C49.3516 21.5625 48.8763 21.3867 48.3164 21.3867C47.7565 21.3867 47.2943 21.4909 46.9297 21.6992C46.5651 21.9076 46.2396 22.1875 45.9531 22.5391C45.6797 22.8906 45.4453 23.2943 45.25 23.75C45.0677 24.1927 44.918 24.6484 44.8008 25.1172C44.6836 25.612 44.599 26.1003 44.5469 26.582L47.2227 26.6992C48.9674 26.6992 50.2826 26.6536 51.168 26.5625ZM44.4688 28.2617C44.4948 30.0586 44.8203 31.4323 45.4453 32.3828C46.1224 33.3984 47.0794 33.9062 48.3164 33.9062C49.4492 33.9062 50.276 33.3464 50.7969 32.2266C51.1224 31.4974 51.526 31.1328 52.0078 31.1328C52.2292 31.1328 52.4115 31.2044 52.5547 31.3477C52.7109 31.4909 52.7826 31.7448 52.7695 32.1094C52.7565 32.4609 52.6263 32.8451 52.3789 33.2617C52.1445 33.6784 51.8125 34.0495 51.3828 34.375C50.4453 35.1042 49.319 35.4688 48.0039 35.4688C46.5846 35.4688 45.3607 34.8633 44.332 33.6523C43.2513 32.3763 42.7109 30.8594 42.7109 29.1016C42.7109 27.3438 42.8607 25.918 43.1602 24.8242C43.4727 23.7174 43.8828 22.7995 44.3906 22.0703C45.3802 20.599 46.6172 19.8633 48.1016 19.8633C50.0026 19.8633 51.3372 20.612 52.1055 22.1094C52.6393 23.151 52.9258 24.681 52.9648 26.6992C52.9779 27.2721 52.8867 27.6562 52.6914 27.8516C52.4961 28.0469 52.099 28.1445 51.5 28.1445L44.4688 28.2617ZM65.0352 24.8828L65.0742 16.6211C65.0742 11.9336 64.9245 7.96224 64.625 4.70703C64.5859 4.29036 64.6901 3.98438 64.9375 3.78906C65.1849 3.58073 65.4648 3.47656 65.7773 3.47656C66.1029 3.47656 66.3958 3.58073 66.6562 3.78906C66.9167 3.98438 67.0339 4.42708 67.0078 5.11719C66.9818 5.79427 66.9492 6.66016 66.9102 7.71484C66.8841 8.75651 66.8581 9.86328 66.832 11.0352C66.7799 13.3789 66.7539 15.5013 66.7539 17.4023C66.7539 19.3034 66.7539 20.6055 66.7539 21.3086C66.7669 21.9987 66.7799 22.6693 66.793 23.3203C66.8581 26.7839 67.0534 28.9779 67.3789 29.9023C67.7044 30.8268 68.082 31.5365 68.5117 32.0312C69.3711 33.0208 70.4779 33.5156 71.832 33.5156C73.2253 33.5156 74.3776 33.0013 75.2891 31.9727C76.2266 30.9049 76.7734 29.4141 76.9297 27.5C77.0729 25.1562 77.1445 23.2747 77.1445 21.8555C77.1445 20.4362 77.138 19.2122 77.125 18.1836C77.125 17.1419 77.112 15.9766 77.0859 14.6875C76.9818 10.9375 76.8776 7.57161 76.7734 4.58984C76.7604 4.17318 76.8711 3.86719 77.1055 3.67188C77.3398 3.47656 77.6068 3.37891 77.9062 3.37891C78.2057 3.37891 78.4792 3.47656 78.7266 3.67188C78.974 3.86719 79.0911 4.17318 79.0781 4.58984C79.026 6.52995 78.9935 8.44401 78.9805 10.332C78.9805 12.2201 78.974 14.0951 78.9609 15.957C78.9349 20.4753 78.8503 23.724 78.707 25.7031C78.5638 27.6693 78.3424 29.1536 78.043 30.1562C77.7565 31.1589 77.3398 32.0508 76.793 32.832C75.569 34.5768 73.9219 35.4492 71.8516 35.4492C68.4271 35.4492 66.2917 33.5547 65.4453 29.7656C65.1719 28.5807 65.0352 27.2591 65.0352 25.8008V24.8828ZM94 20.3125C94.2604 20.3125 94.4883 20.4102 94.6836 20.6055C94.8789 20.8008 94.9766 21.0547 94.9766 21.3672C94.9766 21.6667 94.8268 22.0312 94.5273 22.4609C94.2409 22.8776 93.8828 23.3268 93.4531 23.8086C93.0365 24.2773 92.5938 24.7526 92.125 25.2344C91.7214 25.651 91.3568 26.0417 91.0312 26.4062C91.5781 28.0729 92.5286 29.8698 93.8828 31.7969C94.2604 32.3177 94.5534 32.7604 94.7617 33.125C94.9701 33.4766 95.0742 33.776 95.0742 34.0234C95.0742 34.2578 94.957 34.4922 94.7227 34.7266C94.4883 34.9609 94.2474 35.0781 94 35.0781C93.4271 35.0781 93.0299 34.8177 92.8086 34.2969C92.6003 33.763 92.3333 33.1576 92.0078 32.4805C91.6823 31.7904 91.3503 31.1133 91.0117 30.4492C90.4518 29.3555 89.9701 28.4635 89.5664 27.7734C89.2148 28.112 88.8307 28.4701 88.4141 28.8477C87.8281 29.3815 87.3789 29.7982 87.0664 30.0977C86.9883 30.1758 86.9102 30.2474 86.832 30.3125V30.3516C86.832 30.6771 86.8385 31.0352 86.8516 31.4258C86.8646 31.8034 86.8776 32.1875 86.8906 32.5781C86.9036 32.9557 86.9102 33.3333 86.9102 33.7109C86.9232 34.0755 86.8125 34.3685 86.5781 34.5898C86.3438 34.8112 86.0898 34.9219 85.8164 34.9219C85.556 34.9219 85.3216 34.8242 85.1133 34.6289C84.9049 34.4336 84.8138 34.0299 84.8398 33.418C84.8659 32.793 84.8854 31.9727 84.8984 30.957C84.9245 29.9414 84.9375 28.8542 84.9375 27.6953C84.9635 24.2448 84.9766 21.7122 84.9766 20.0977C84.9766 18.4701 84.9701 16.7708 84.957 15C84.944 13.2292 84.9245 11.5234 84.8984 9.88281C84.8203 6.19792 84.6901 3.48958 84.5078 1.75781C84.4688 1.34115 84.5664 1.03516 84.8008 0.839844C85.0482 0.63151 85.3216 0.527344 85.6211 0.527344C85.9336 0.527344 86.2135 0.63151 86.4609 0.839844C86.7214 1.03516 86.8385 1.38021 86.8125 1.875C86.7995 2.36979 86.7865 3.0013 86.7734 3.76953C86.7734 4.53776 86.7734 5.3776 86.7734 6.28906C86.7995 9.02344 86.8125 11.0482 86.8125 12.3633C86.8125 13.6654 86.806 15.0326 86.793 16.4648C86.793 17.8841 86.7865 19.3164 86.7734 20.7617C86.7604 23.7174 86.7734 26.2435 86.8125 28.3398C88.1406 27.1029 89.5859 25.4818 91.1484 23.4766C91.9036 22.513 92.3854 21.8099 92.5938 21.3672C92.9453 20.6641 93.4141 20.3125 94 20.3125ZM107.066 20.918C107.066 21.6211 106.715 22.0247 106.012 22.1289C105.152 22.2982 104.182 23.0339 103.102 24.3359C101.943 25.7422 101.292 27.1289 101.148 28.4961C101.096 29.0951 101.07 29.6419 101.07 30.1367C101.07 31.3216 101.122 32.5651 101.227 33.8672C101.253 34.2969 101.142 34.6224 100.895 34.8438C100.66 35.0651 100.4 35.1758 100.113 35.1758C99.8398 35.1758 99.599 35.0781 99.3906 34.8828C99.1823 34.6745 99.0977 34.3685 99.1367 33.9648C99.1758 33.5482 99.2083 33.0729 99.2344 32.5391C99.2604 31.9922 99.2865 31.4193 99.3125 30.8203C99.3385 29.8047 99.3516 28.6719 99.3516 27.4219C99.3516 25.3125 99.3255 23.75 99.2734 22.7344C99.2214 21.7057 99.2279 21.1133 99.293 20.957C99.3581 20.8008 99.4427 20.6771 99.5469 20.5859C99.7682 20.3776 100.009 20.2734 100.27 20.2734C100.543 20.2734 100.784 20.3711 100.992 20.5664C101.214 20.7617 101.311 21.0156 101.285 21.3281C101.272 21.6276 101.246 21.9271 101.207 22.2266C101.181 22.513 101.148 22.8711 101.109 23.3008C101.031 23.9909 100.96 24.7266 100.895 25.5078C101.428 24.1667 102.19 22.9297 103.18 21.7969C104.286 20.5599 105.25 19.9414 106.07 19.9414C106.422 19.9414 106.676 20.0391 106.832 20.2344C106.988 20.4297 107.066 20.6576 107.066 20.918ZM116.422 30.9961C116.409 30.2799 116.409 29.401 116.422 28.3594C115.862 28.1641 115.152 28.0664 114.293 28.0664C113.134 28.0664 112.184 28.3464 111.441 28.9062C111.077 29.1927 110.784 29.5443 110.562 29.9609C110.341 30.3646 110.23 30.8919 110.23 31.543C110.23 32.181 110.452 32.7148 110.895 33.1445C111.337 33.5742 111.988 33.7891 112.848 33.7891C113.707 33.7891 114.664 33.2031 115.719 32.0312C116.018 31.7057 116.253 31.3607 116.422 30.9961ZM117.672 35.4102C116.891 35.4102 116.5 34.8177 116.5 33.6328C116.5 33.5547 116.493 33.3333 116.48 32.9688C116.363 33.112 116.233 33.2682 116.09 33.4375C114.918 34.7656 113.642 35.4297 112.262 35.4297C111.155 35.4297 110.237 35.0781 109.508 34.375C108.753 33.6458 108.375 32.7148 108.375 31.582C108.375 30.0065 108.987 28.737 110.211 27.7734C110.758 27.3438 111.37 27.0182 112.047 26.7969C112.737 26.5755 113.505 26.4648 114.352 26.4648C115.055 26.4648 115.745 26.582 116.422 26.8164V24.7461C116.422 23.6003 116.181 22.7409 115.699 22.168C115.23 21.5951 114.742 21.3086 114.234 21.3086C113.727 21.3086 113.31 21.3737 112.984 21.5039C112.672 21.6341 112.392 21.8229 112.145 22.0703C111.598 22.6042 111.285 23.2682 111.207 24.0625C111.246 24.4792 111.161 24.7721 110.953 24.9414C110.745 25.0977 110.517 25.1758 110.27 25.1758C109.566 25.1758 109.228 24.707 109.254 23.7695C109.28 22.793 109.775 21.8945 110.738 21.0742C111.728 20.2279 112.835 19.8047 114.059 19.8047C115.882 19.8047 117.112 20.7096 117.75 22.5195C117.971 23.1706 118.082 23.8867 118.082 24.668V26.6797L118.062 29.9609V31.6992C118.062 32.4805 118.154 33.112 118.336 33.5938C118.531 34.0755 118.629 34.4206 118.629 34.6289C118.629 34.8242 118.531 35 118.336 35.1562C118.141 35.3255 117.919 35.4102 117.672 35.4102ZM125.797 14.2969C125.888 14.5052 125.921 14.7591 125.895 15.0586C125.882 15.3451 125.816 15.5924 125.699 15.8008C125.582 16.0091 125.445 16.1784 125.289 16.3086C124.99 16.543 124.684 16.6602 124.371 16.6602C124.059 16.6602 123.811 16.6276 123.629 16.5625C123.447 16.4844 123.284 16.3802 123.141 16.25C122.802 15.9375 122.633 15.5273 122.633 15.0195C122.633 14.5117 122.763 14.1471 123.023 13.9258C123.453 13.5482 123.883 13.3594 124.312 13.3594C125.016 13.3594 125.51 13.6719 125.797 14.2969ZM125.172 21.6406C125.107 22.9948 125.042 24.3294 124.977 25.6445C124.911 26.9596 124.879 28.1445 124.879 29.1992C124.879 30.2539 124.911 31.3477 124.977 32.4805C125.042 33.6003 125.042 34.2448 124.977 34.4141C124.924 34.5703 124.846 34.7005 124.742 34.8047C124.521 35.026 124.28 35.1367 124.02 35.1367C123.759 35.1367 123.512 35.0391 123.277 34.8438C123.056 34.6484 122.971 34.2513 123.023 33.6523C123.167 31.9987 123.238 30.3255 123.238 28.6328C123.238 26.9401 123.212 25.5729 123.16 24.5312C123.121 23.4766 123.089 22.6823 123.062 22.1484C123.049 21.6146 123.076 21.2695 123.141 21.1133C123.206 20.957 123.297 20.8333 123.414 20.7422C123.635 20.5339 123.883 20.4297 124.156 20.4297C124.43 20.4297 124.671 20.5273 124.879 20.7227C125.087 20.918 125.185 21.224 125.172 21.6406ZM140.172 25.5273L140.133 29.7461C140.133 31.1393 140.178 32.4414 140.27 33.6523C140.296 34.0951 140.185 34.4271 139.938 34.6484C139.703 34.8568 139.449 34.9609 139.176 34.9609C138.915 34.9609 138.674 34.8633 138.453 34.668C138.245 34.4596 138.16 34.1536 138.199 33.75C138.251 33.3333 138.29 32.8581 138.316 32.3242C138.355 31.7904 138.388 31.237 138.414 30.6641C138.466 29.5182 138.492 28.5742 138.492 27.832C138.492 27.0768 138.479 26.5299 138.453 26.1914C138.427 25.8529 138.401 25.3516 138.375 24.6875C138.349 24.0104 138.173 23.3789 137.848 22.793C137.522 22.194 137.066 21.8945 136.48 21.8945C135.895 21.8945 135.387 22.0182 134.957 22.2656C134.527 22.513 134.13 22.8385 133.766 23.2422C133.023 24.1146 132.529 25.1302 132.281 26.2891C132.268 26.6536 132.262 27.0117 132.262 27.3633V28.3789C132.262 30.7357 132.288 32.2982 132.34 33.0664C132.392 33.8216 132.346 34.3294 132.203 34.5898C132.06 34.8372 131.806 34.9609 131.441 34.9609C131.09 34.9609 130.81 34.8503 130.602 34.6289C130.406 34.3945 130.328 33.9714 130.367 33.3594C130.497 31.6797 130.562 29.9544 130.562 28.1836C130.562 25.1497 130.517 22.9232 130.426 21.5039C130.374 20.6315 130.738 20.1953 131.52 20.1953C131.923 20.1953 132.177 20.319 132.281 20.5664C132.398 20.8138 132.438 21.0742 132.398 21.3477C132.372 21.6211 132.353 21.8555 132.34 22.0508C132.34 22.2461 132.34 22.4479 132.34 22.6562C132.34 22.8646 132.34 23.0534 132.34 23.2227C133.108 21.7643 134.13 20.8073 135.406 20.3516C135.81 20.2083 136.22 20.1367 136.637 20.1367C137.053 20.1367 137.483 20.2344 137.926 20.4297C138.368 20.612 138.753 20.918 139.078 21.3477C139.807 22.2852 140.172 23.6784 140.172 25.5273ZM152.652 26.5625C152.678 24.2969 152.203 22.7474 151.227 21.9141C150.836 21.5625 150.361 21.3867 149.801 21.3867C149.241 21.3867 148.779 21.4909 148.414 21.6992C148.049 21.9076 147.724 22.1875 147.438 22.5391C147.164 22.8906 146.93 23.2943 146.734 23.75C146.552 24.1927 146.402 24.6484 146.285 25.1172C146.168 25.612 146.083 26.1003 146.031 26.582L148.707 26.6992C150.452 26.6992 151.767 26.6536 152.652 26.5625ZM145.953 28.2617C145.979 30.0586 146.305 31.4323 146.93 32.3828C147.607 33.3984 148.564 33.9062 149.801 33.9062C150.934 33.9062 151.76 33.3464 152.281 32.2266C152.607 31.4974 153.01 31.1328 153.492 31.1328C153.714 31.1328 153.896 31.2044 154.039 31.3477C154.195 31.4909 154.267 31.7448 154.254 32.1094C154.241 32.4609 154.111 32.8451 153.863 33.2617C153.629 33.6784 153.297 34.0495 152.867 34.375C151.93 35.1042 150.803 35.4688 149.488 35.4688C148.069 35.4688 146.845 34.8633 145.816 33.6523C144.736 32.3763 144.195 30.8594 144.195 29.1016C144.195 27.3438 144.345 25.918 144.645 24.8242C144.957 23.7174 145.367 22.7995 145.875 22.0703C146.865 20.599 148.102 19.8633 149.586 19.8633C151.487 19.8633 152.822 20.612 153.59 22.1094C154.124 23.151 154.41 24.681 154.449 26.6992C154.462 27.2721 154.371 27.6562 154.176 27.8516C153.98 28.0469 153.583 28.1445 152.984 28.1445L145.953 28.2617Z" fill="#FFE544"/>
</svg>
