<svg width="33" height="25" viewBox="0 0 33 25" fill="none" xmlns="http://www.w3.org/2000/svg">
<path d="M27.5779 21.0547C27.5779 21.4342 27.3152 21.7076 26.9383 21.7076C26.5499 21.7076 26.2987 21.4174 26.2987 21.0547C26.2987 20.692 26.5499 20.4018 26.9383 20.4018C27.3152 20.4018 27.5779 20.692 27.5779 21.0547ZM9.82845 20.4018C9.42297 20.4018 9.18882 20.692 9.18882 21.0547C9.18882 21.4174 9.42297 21.7076 9.82845 21.7076C10.1997 21.7076 10.4509 21.4342 10.4509 21.0547C10.4452 20.692 10.1997 20.4018 9.82845 20.4018ZM16.5387 20.385C16.2304 20.385 16.0419 20.5804 15.9962 20.8705H17.087C17.0356 20.5525 16.8357 20.385 16.5387 20.385ZM22.6951 20.4018C22.3067 20.4018 22.0726 20.692 22.0726 21.0547C22.0726 21.4174 22.3067 21.7076 22.6951 21.7076C23.0834 21.7076 23.3347 21.4342 23.3347 21.0547C23.3347 20.692 23.0834 20.4018 22.6951 20.4018ZM28.7429 21.8583C28.7429 21.875 28.7601 21.8862 28.7601 21.9196C28.7601 21.9364 28.7429 21.9475 28.7429 21.981C28.7258 21.9978 28.7258 22.0089 28.7144 22.0257C28.6972 22.0424 28.6858 22.0536 28.6515 22.0536C28.6344 22.0703 28.623 22.0703 28.5887 22.0703C28.5716 22.0703 28.5602 22.0703 28.5259 22.0536C28.5088 22.0536 28.4974 22.0368 28.4802 22.0257C28.4631 22.0089 28.4517 21.9978 28.4517 21.981C28.4345 21.9531 28.4345 21.9364 28.4345 21.9196C28.4345 21.8917 28.4345 21.875 28.4517 21.8583C28.4517 21.8304 28.4688 21.8136 28.4802 21.7969C28.4974 21.7801 28.5088 21.7801 28.5259 21.769C28.5545 21.7522 28.5716 21.7522 28.5887 21.7522C28.6173 21.7522 28.6344 21.7522 28.6515 21.769C28.6801 21.7857 28.6972 21.7857 28.7144 21.7969C28.7315 21.808 28.7258 21.8304 28.7429 21.8583ZM28.6173 21.9364C28.6458 21.9364 28.6458 21.9196 28.663 21.9196C28.6801 21.9029 28.6801 21.8917 28.6801 21.875C28.6801 21.8583 28.6801 21.8471 28.663 21.8304C28.6458 21.8304 28.6344 21.8136 28.6001 21.8136H28.5088V22.0089H28.5545V21.9308H28.5716L28.6344 22.0089H28.6801L28.6173 21.9364ZM32.8947 2.67857V22.3214C32.8947 23.8002 31.6669 25 30.1535 25H2.74123C1.22784 25 0 23.8002 0 22.3214V2.67857C0 1.19978 1.22784 0 2.74123 0H30.1535C31.6669 0 32.8947 1.19978 32.8947 2.67857ZM3.65497 10.4688C3.65497 14.7377 7.20143 18.1975 11.5646 18.1975C13.1179 18.1975 14.6427 17.74 15.9334 16.9085C11.7701 13.5993 11.7987 7.35491 15.9334 4.04576C14.6427 3.20871 13.1179 2.7567 11.5646 2.7567C7.20143 2.75112 3.65497 6.21652 3.65497 10.4688ZM16.4474 16.5402C20.4735 13.471 20.4564 7.48884 16.4474 4.4029C12.4383 7.48884 12.4212 13.4766 16.4474 16.5402ZM8.32077 20.798C8.32077 20.3125 7.99525 19.9944 7.48127 19.9777C7.21857 19.9777 6.93873 20.0558 6.75027 20.3404C6.61321 20.1116 6.37907 19.9777 6.05355 19.9777C5.83653 19.9777 5.61952 20.0558 5.44819 20.279V20.0335H4.9799V22.0815H5.44819C5.44819 21.0268 5.30542 20.3962 5.96217 20.3962C6.54468 20.3962 6.43046 20.9654 6.43046 22.0815H6.88162C6.88162 21.0603 6.73885 20.3962 7.39561 20.3962C7.97812 20.3962 7.8639 20.9542 7.8639 22.0815H8.33219V20.798H8.32077ZM10.885 20.0335H10.4338V20.279C10.2796 20.0949 10.0626 19.9777 9.76562 19.9777C9.1774 19.9777 8.72624 20.4353 8.72624 21.0547C8.72624 21.6797 9.1774 22.1317 9.76562 22.1317C10.0626 22.1317 10.2796 22.0257 10.4338 21.8304V22.0871H10.885V20.0335ZM13.1979 21.4621C13.1979 20.625 11.8901 21.0045 11.8901 20.6138C11.8901 20.2958 12.5697 20.346 12.9466 20.5525L13.1351 20.1897C12.5982 19.8493 11.4104 19.8549 11.4104 20.6473C11.4104 21.4453 12.7182 21.1105 12.7182 21.4844C12.7182 21.8359 11.9472 21.808 11.536 21.529L11.3361 21.8806C11.9757 22.3047 13.1979 22.2154 13.1979 21.4621ZM15.2195 21.981L15.0939 21.6016C14.8769 21.7188 14.3972 21.8471 14.3972 21.3728V20.4464H15.1453V20.0335H14.3972V19.4085H13.9289V20.0335H13.4948V20.4408H13.9289V21.3728C13.9289 22.3549 14.9169 22.1763 15.2195 21.981ZM15.9791 21.2333H17.5496C17.5496 20.3292 17.127 19.9721 16.5559 19.9721C15.9505 19.9721 15.5165 20.4129 15.5165 21.0491C15.5165 22.1931 16.8072 22.3828 17.4468 21.8415L17.2298 21.5067C16.7843 21.8638 16.1104 21.8304 15.9791 21.2333ZM19.3542 20.0335C19.0915 19.9219 18.6917 19.933 18.4862 20.279V20.0335H18.0179V22.0815H18.4862V20.9263C18.4862 20.279 19.0287 20.3627 19.2172 20.4576L19.3542 20.0335ZM19.9596 21.0547C19.9596 20.4185 20.622 20.2121 21.1417 20.5859L21.3587 20.2232C20.6963 19.7154 19.4913 19.9944 19.4913 21.0603C19.4913 22.1652 20.7705 22.3884 21.3587 21.8973L21.1417 21.5346C20.6163 21.8973 19.9596 21.6797 19.9596 21.0547ZM23.7687 20.0335H23.3004V20.279C22.8264 19.6652 21.5929 20.0112 21.5929 21.0547C21.5929 22.1261 22.8721 22.433 23.3004 21.8304V22.0871H23.7687V20.0335ZM25.6933 20.0335C25.5562 19.9665 25.0651 19.8717 24.8252 20.279V20.0335H24.3741V22.0815H24.8252V20.9263C24.8252 20.3125 25.3392 20.3516 25.5562 20.4576L25.6933 20.0335ZM27.9948 19.202H27.5436V20.279C27.0753 19.6708 25.8361 19.9944 25.8361 21.0547C25.8361 22.1373 27.121 22.4275 27.5436 21.8304V22.0871H27.9948V19.202ZM28.4288 15.0112V15.2679H28.4745V15.0112H28.583V14.9665H28.3203V15.0112H28.4288ZM28.8057 21.9196C28.8057 21.8917 28.8057 21.8583 28.7886 21.8304C28.7715 21.8136 28.7601 21.7857 28.7429 21.769C28.7258 21.7522 28.6972 21.7411 28.6801 21.7243C28.6515 21.7243 28.6173 21.7076 28.5887 21.7076C28.5716 21.7076 28.543 21.7243 28.5088 21.7243C28.4802 21.7411 28.4631 21.7522 28.446 21.769C28.4174 21.7857 28.4003 21.8136 28.4003 21.8304C28.3831 21.8583 28.3831 21.8917 28.3831 21.9196C28.3831 21.9364 28.3831 21.9643 28.4003 21.9978C28.4003 22.0145 28.4174 22.0424 28.446 22.0592C28.4631 22.0759 28.4745 22.0871 28.5088 22.1038C28.5373 22.1205 28.5716 22.1205 28.5887 22.1205C28.6173 22.1205 28.6515 22.1205 28.6801 22.1038C28.6972 22.0871 28.7258 22.0759 28.7429 22.0592C28.7601 22.0424 28.7715 22.0145 28.7886 21.9978C28.8057 21.9643 28.8057 21.9364 28.8057 21.9196ZM28.9885 14.9609H28.9085L28.8172 15.1562L28.7258 14.9609H28.6458V15.2623H28.6915V15.0335L28.7829 15.2288H28.8457L28.9257 15.0335V15.2623H28.9885V14.9609ZM29.2398 10.4688C29.2398 6.21652 25.6933 2.75112 21.3302 2.75112C19.7768 2.75112 18.252 3.20871 16.9613 4.04018C21.0789 7.34933 21.1417 13.6105 16.9613 16.9029C18.252 17.74 19.7882 18.192 21.3302 18.192C25.6933 18.1975 29.2398 14.7377 29.2398 10.4688Z" fill="#979797"/>
</svg>
